<?xml version="1.0" standalone="no"?>
<!DOCTYPE svg PUBLIC "-//W3C//DTD SVG 20010904//EN"
 "http://www.w3.org/TR/2001/REC-SVG-20010904/DTD/svg10.dtd">
<svg version="1.0" xmlns="http://www.w3.org/2000/svg"
 width="1080.000000pt" height="1920.000000pt" viewBox="0 0 1080.000000 1920.000000"
 preserveAspectRatio="xMidYMid meet">

<g transform="translate(0.000000,1920.000000) scale(0.100000,-0.100000)"
fill="#000000" stroke="none">
<path d="M3795 16576 l-320 -183 -3 128 c-1 71 -4 129 -7 129 -17 0 -235 -84
-295 -115 -264 -132 -480 -350 -608 -615 l-57 -117 -55 -22 c-187 -77 -355
-264 -415 -461 -25 -86 -36 -217 -25 -307 12 -96 30 -153 82 -264 l40 -86 -45
-62 c-59 -79 -81 -146 -80 -241 2 -200 137 -350 346 -385 l37 -6 0 -63 c0
-406 153 -781 435 -1061 150 -150 334 -271 518 -340 26 -10 47 -19 47 -21 0
-2 -18 -20 -40 -40 -59 -54 -117 -149 -146 -239 -31 -99 -35 -235 -9 -335 23
-88 100 -246 176 -361 80 -121 272 -313 394 -396 256 -173 546 -263 846 -263
127 0 129 0 129 -22 1 -66 68 -148 138 -168 57 -15 1432 -14 1486 2 54 17 109
73 125 130 8 29 11 90 9 174 -4 156 -18 192 -93 239 l-48 30 -422 3 -422 3
-19 62 c-25 82 -101 195 -166 245 -100 77 -174 103 -359 127 l-47 6 -7 47
c-18 119 -87 286 -168 407 -62 92 -192 220 -290 286 -49 32 -93 59 -98 59 -25
0 -4 19 39 35 79 29 230 112 316 172 104 74 265 235 339 339 167 236 257 503
273 812 l7 132 36 6 c207 34 343 186 345 384 1 91 -20 156 -74 234 l-39 55 30
54 c69 129 100 284 81 418 -23 163 -81 282 -195 405 l-68 73 22 63 c11 35 27
96 35 136 15 77 20 342 7 342 -5 0 -141 -23 -303 -50 -162 -27 -295 -48 -295
-47 -1 1 -23 110 -49 242 -26 132 -49 248 -52 257 -4 15 -51 -6 -295 -127
-159 -80 -291 -145 -293 -145 -2 0 -25 110 -52 245 -27 135 -51 245 -54 245
-3 0 -149 -83 -325 -184z m235 -361 c24 -121 46 -224 50 -228 4 -5 138 57 297
136 l289 145 43 -221 c24 -122 46 -225 50 -228 3 -4 129 14 279 39 149 25 275
43 278 39 10 -10 -25 -156 -54 -225 -55 -132 -165 -262 -286 -341 l-61 -40
-55 19 c-110 37 -199 41 -1058 39 l-834 -1 -133 199 -133 199 34 74 c73 157
201 316 339 421 59 45 177 119 189 119 3 0 6 -70 6 -155 0 -85 2 -155 4 -155
2 0 161 90 352 199 192 110 352 197 355 193 3 -4 25 -106 49 -227z m-1367
-779 l106 -159 -59 -38 c-32 -20 -77 -54 -100 -75 -88 -80 -174 -228 -200
-346 -12 -54 -15 -58 -41 -58 -15 0 -34 -2 -42 -5 -20 -8 -96 160 -115 258
-32 164 26 346 152 471 59 59 175 132 187 118 4 -4 54 -79 112 -166z m2797
-171 c17 -33 38 -96 47 -140 21 -104 8 -198 -42 -304 l-35 -74 -38 7 c-20 3
-44 6 -53 6 -12 0 -21 19 -33 68 -22 92 -74 194 -140 274 l-55 66 67 56 c37
31 92 86 122 122 l54 66 38 -44 c20 -23 51 -70 68 -103z m-673 -142 c83 -28
152 -73 213 -139 49 -55 102 -151 115 -210 l6 -32 -44 10 c-25 5 -228 8 -468
6 -422 -3 -424 -3 -477 -27 -65 -29 -134 -104 -156 -168 -9 -26 -16 -79 -16
-120 l0 -73 -100 0 -100 0 0 73 c0 41 -7 94 -16 120 -21 63 -83 130 -152 164
l-57 28 -424 3 c-240 2 -443 -1 -468 -6 l-44 -10 6 32 c12 58 68 161 118 213
83 88 171 135 287 153 30 4 429 7 885 6 818 -1 831 -2 892 -23z m-2397 -758
c0 -217 3 -209 -68 -180 -158 67 -162 284 -7 356 78 36 75 43 75 -176z m1114
185 c14 -5 33 -21 43 -37 16 -25 18 -56 18 -351 l0 -324 -33 -29 -32 -29 -415
0 c-445 0 -455 1 -481 51 -20 39 -20 642 0 678 28 50 33 50 468 51 235 0 417
-4 432 -10z m1575 -4 c49 -26 51 -43 51 -376 0 -218 -4 -317 -12 -335 -24 -54
-32 -55 -482 -55 l-416 0 -32 29 -33 29 0 330 c0 316 1 331 20 352 11 12 29
26 40 31 11 4 204 8 428 8 334 1 413 -2 436 -13z m319 -1 c49 -21 81 -52 103
-100 46 -100 0 -216 -103 -260 -71 -29 -68 -37 -68 180 0 217 -3 209 68 180z
m-1438 -548 c0 -132 4 -185 16 -220 22 -64 91 -139 156 -168 l53 -24 452 0
c374 0 453 -2 453 -14 0 -31 -65 -203 -107 -283 -221 -418 -651 -678 -1123
-678 -337 0 -630 118 -875 352 -154 147 -279 348 -338 543 l-24 80 456 0 456
0 53 24 c65 29 134 104 156 168 12 35 16 88 16 220 l0 173 100 0 100 0 0 -173z
m-73 -1617 c72 -31 120 -68 157 -119 30 -40 266 -554 266 -577 0 -5 -134 -68
-298 -141 l-297 -132 -52 51 c-119 117 -259 357 -283 484 -38 202 78 397 269
451 63 18 178 10 238 -17z m406 -86 c67 -35 182 -130 238 -198 69 -84 139
-214 169 -314 12 -40 20 -75 18 -77 -2 -3 -42 0 -89 5 -46 5 -91 10 -100 10
-11 0 -41 56 -97 183 -44 100 -103 233 -131 295 -27 61 -48 112 -45 112 3 0
19 -7 37 -16z m497 -799 c140 -14 278 -32 305 -40 72 -21 142 -79 181 -150
l33 -60 -218 -5 -218 -5 -42 -28 c-49 -33 -79 -77 -88 -131 l-6 -39 -136 7
c-142 7 -291 33 -395 67 -105 35 -330 151 -315 162 2 2 132 60 289 130 235
104 291 125 320 121 19 -2 150 -16 290 -29z m1510 -550 l0 -95 -680 0 -680 0
0 95 0 95 680 0 680 0 0 -95z"/>
<path d="M3012 14360 c-111 -17 -245 -108 -291 -199 -12 -22 -21 -43 -21 -45
0 -7 156 -86 168 -86 4 0 16 17 27 37 24 43 91 89 146 98 65 11 135 -12 183
-59 22 -22 46 -49 51 -60 10 -17 16 -16 97 25 l87 43 -20 38 c-74 146 -255
234 -427 208z"/>
<path d="M4570 14359 c-110 -18 -232 -102 -284 -196 -15 -25 -25 -47 -24 -48
6 -5 168 -85 172 -85 2 0 13 16 24 34 47 80 151 121 243 96 43 -12 130 -85
141 -120 4 -12 22 -7 92 27 47 24 86 47 86 51 0 19 -60 100 -102 139 -95 87
-218 123 -348 102z"/>
<path d="M4214 13275 c-75 -79 -102 -85 -401 -85 l-243 0 0 -96 0 -95 288 3
287 3 69 33 c39 18 89 48 112 67 39 32 104 118 104 137 0 6 -154 89 -162 87
-2 0 -26 -24 -54 -54z"/>
<path d="M6042 16309 c-44 -13 -108 -79 -121 -126 -16 -56 -15 -2218 0 -2264
18 -53 58 -99 103 -120 38 -17 73 -19 504 -19 254 0 462 -2 462 -4 0 -2 -133
-440 -296 -972 -270 -887 -295 -974 -291 -1025 8 -97 68 -183 157 -223 65 -29
223 -35 288 -11 61 23 107 57 137 103 13 21 66 175 118 347 l95 310 180 3 179
2 148 -517 c81 -285 150 -526 153 -535 4 -17 -24 -18 -489 -18 -331 0 -507 -4
-534 -11 -55 -15 -120 -82 -135 -139 -8 -29 -11 -91 -8 -170 4 -135 13 -163
65 -212 61 -59 56 -58 615 -58 322 0 527 4 550 10 48 14 94 53 118 101 18 35
20 60 20 268 l0 230 -286 1001 -285 1000 78 258 78 257 140 5 c148 5 178 14
221 62 57 62 54 -12 54 1203 0 984 -2 1120 -15 1153 -21 49 -52 81 -100 103
-38 18 -86 19 -955 18 -545 -1 -928 -5 -948 -10z m1826 -381 l-3 -193 -487 -3
-488 -2 0 100 0 100 -100 0 -100 0 0 -100 0 -100 -95 0 -95 0 0 100 0 100
-100 0 -100 0 0 -100 0 -100 -95 0 -95 0 0 195 0 195 880 0 880 0 -2 -192z
m-788 -1138 c0 -654 -2 -755 -15 -780 l-16 -30 -469 0 -470 0 0 780 0 780 485
0 485 0 0 -750z m788 -32 l2 -778 -105 0 -104 0 -17 33 c-31 61 -65 97 -117
124 -43 22 -69 28 -149 31 l-98 4 0 684 0 684 293 -2 292 -3 3 -777z m-416
-805 c10 -9 18 -30 18 -48 0 -17 -144 -506 -320 -1086 -241 -790 -326 -1058
-342 -1071 -15 -14 -38 -18 -94 -18 -82 0 -114 18 -114 64 0 25 633 2114 650
2146 14 25 25 28 109 29 56 1 79 -3 93 -16z m-12 -1233 c29 -102 55 -191 57
-197 4 -10 -23 -13 -117 -13 -99 0 -121 3 -117 14 4 11 89 288 113 369 3 10 7
17 9 15 1 -2 26 -86 55 -188z m420 -1775 l0 -95 -485 0 -485 0 0 95 0 95 485
0 485 0 0 -95z"/>
<path d="M6300 15245 l0 -95 295 0 295 0 0 95 0 95 -295 0 -295 0 0 -95z"/>
<path d="M6302 14853 l3 -98 293 -3 292 -2 0 100 0 100 -295 0 -296 0 3 -97z"/>
<path d="M6302 14463 l3 -98 293 -3 292 -2 0 100 0 100 -295 0 -296 0 3 -97z"/>
<path d="M7480 15245 l0 -95 95 0 95 0 0 95 0 95 -95 0 -95 0 0 -95z"/>
<path d="M7480 14850 l0 -100 95 0 95 0 0 100 0 100 -95 0 -95 0 0 -100z"/>
<path d="M7480 14460 l0 -100 95 0 95 0 0 100 0 100 -95 0 -95 0 0 -100z"/>
<path d="M5531 12453 c-105 -263 -191 -483 -191 -489 0 -11 167 -81 174 -73 6
6 386 958 386 967 0 6 -156 72 -172 72 -3 0 -92 -215 -197 -477z"/>
<path d="M4975 12590 l-180 -180 182 -182 183 -183 46 45 c25 25 55 58 66 73
l21 29 -109 109 -109 109 108 108 c59 59 107 112 107 117 0 10 -121 135 -130
135 -3 0 -86 -81 -185 -180z"/>
<path d="M6007 12703 l-67 -68 112 -112 113 -113 -113 -113 -112 -112 70 -70
70 -70 183 183 182 182 -180 180 c-99 99 -182 180 -185 180 -3 0 -36 -30 -73
-67z"/>
</g>
</svg>
