<?xml version="1.0" standalone="no"?>
<!DOCTYPE svg PUBLIC "-//W3C//DTD SVG 20010904//EN"
 "http://www.w3.org/TR/2001/REC-SVG-20010904/DTD/svg10.dtd">
<svg version="1.0" xmlns="http://www.w3.org/2000/svg"
 width="1080.000000pt" height="1080.000000pt" viewBox="0 0 1080.000000 1080.000000"
 preserveAspectRatio="xMidYMid meet">

<g transform="translate(0.000000,1080.000000) scale(0.100000,-0.100000)"
fill="#000000" stroke="none">
<path d="M8536 9531 c-3 -5 9 -32 28 -60 67 -100 81 -150 81 -301 -1 -128 -2
-139 -33 -215 -17 -45 -45 -102 -62 -128 -35 -55 -37 -67 -12 -67 23 0 80 98
117 200 22 59 29 98 33 187 4 101 2 121 -22 196 -37 121 -109 223 -130 188z"/>
<path d="M7695 9499 c-83 -99 -128 -276 -106 -417 20 -128 106 -326 149 -340
22 -7 13 21 -38 123 -106 213 -104 418 5 582 19 29 35 57 35 62 0 23 -20 19
-45 -10z"/>
<path d="M8405 9421 c-3 -6 6 -26 20 -45 92 -120 95 -292 9 -463 -30 -61 -40
-91 -33 -98 28 -27 112 144 130 267 8 59 8 87 -5 147 -24 116 -96 231 -121
192z"/>
<path d="M7814 9375 c-68 -117 -87 -226 -60 -347 19 -86 84 -221 109 -226 26
-5 21 20 -18 90 -82 150 -86 317 -9 443 19 32 34 64 34 71 0 29 -30 12 -56
-31z"/>
<path d="M8276 9322 c-3 -5 9 -35 25 -68 27 -52 30 -67 27 -130 -2 -52 -10
-84 -31 -123 -31 -60 -34 -81 -11 -81 9 0 27 26 46 66 39 83 47 170 24 242
-25 73 -64 119 -80 94z"/>
<path d="M7950 9278 c-31 -50 -42 -106 -38 -178 6 -99 75 -236 94 -187 3 8 -8
38 -23 68 -21 41 -28 72 -31 131 -4 70 -1 82 26 132 16 30 27 58 24 61 -13 13
-34 2 -52 -27z"/>
<path d="M3738 9174 c-15 -8 -32 -23 -38 -34 -14 -27 -14 -1101 1 -1133 6 -13
23 -31 39 -40 25 -15 93 -17 728 -17 660 0 700 -1 698 -17 -1 -14 8 -19 42
-21 l42 -3 0 -134 0 -134 -42 -3 c-30 -2 -43 -8 -43 -18 0 -12 18 -15 105 -15
l105 0 0 75 c0 60 -3 75 -15 75 -11 0 -16 -14 -18 -57 -3 -54 -5 -58 -27 -58
l-25 0 0 155 0 155 104 0 c98 0 104 -1 99 -19 -4 -17 1 -20 38 -23 l44 -3 0
-130 0 -130 -42 -3 c-35 -3 -43 -7 -43 -23 0 -18 8 -19 104 -19 85 0 105 3
110 16 11 30 6 121 -7 133 -22 17 -37 -8 -37 -61 0 -41 -3 -48 -20 -48 -18 0
-19 9 -22 155 l-3 155 83 0 c88 0 133 15 152 49 15 30 14 1102 -2 1136 -26 57
20 55 -1075 55 -870 -1 -1012 -3 -1035 -16z"/>
<path d="M8087 9183 c-4 -3 -7 -163 -7 -355 l0 -348 -272 1 c-224 1 -266 3
-233 12 56 17 65 24 65 57 0 34 -23 60 -47 54 -10 -2 -130 -31 -267 -64 -242
-58 -252 -60 -386 -60 -150 0 -150 0 -150 -61 0 -22 -5 -29 -20 -29 -19 0 -20
-7 -20 -150 0 -143 1 -150 20 -150 17 0 20 -7 20 -39 0 -61 7 -71 51 -71 57 0
54 -28 -3 -32 -31 -2 -44 -8 -46 -20 -3 -13 6 -17 40 -20 l43 -3 0 -130 0
-130 -43 -3 c-34 -3 -43 -7 -40 -20 3 -15 18 -17 108 -17 l105 0 3 66 c2 50
-1 69 -12 79 -19 15 -24 5 -28 -60 -3 -38 -6 -45 -25 -48 -23 -3 -23 -3 -23
142 l0 145 83 3 c76 3 82 5 85 26 l3 22 504 0 504 0 3 -22 c3 -22 7 -23 98
-23 88 0 96 2 105 22 6 14 20 23 40 25 29 3 30 5 33 56 3 48 5 52 28 52 l24 0
0 145 0 145 -24 0 c-23 0 -25 5 -28 48 l-3 47 -97 3 -98 3 0 342 c0 254 -3
346 -12 355 -13 13 -70 17 -81 5z m-1003 -925 c20 -29 20 -34 -4 -58 -24 -24
-43 -25 -64 -4 -31 30 -9 84 34 84 10 0 26 -10 34 -22z m617 12 c29 -16 26
-67 -5 -81 -34 -16 -66 3 -66 39 0 46 30 64 71 42z m200 0 c26 -15 26 -66 -1
-80 -47 -25 -94 22 -65 66 17 26 35 30 66 14z m214 -14 c13 -19 14 -29 6 -45
-25 -46 -91 -33 -91 19 0 50 58 68 85 26z"/>
<path d="M1315 8798 c3 -7 52 -179 109 -381 57 -202 106 -371 110 -374 10 -10
46 29 46 50 0 23 -175 634 -196 685 -11 26 -19 32 -43 32 -20 0 -29 -4 -26
-12z"/>
<path d="M2422 8781 c-12 -7 -212 -679 -212 -713 0 -19 41 -52 51 -40 4 4 53
171 109 371 56 200 104 369 107 377 6 16 -33 19 -55 5z"/>
<path d="M1090 8737 c-14 -7 -36 -34 -50 -62 -22 -44 -25 -62 -24 -155 2 -190
67 -361 180 -476 51 -51 70 -64 94 -64 17 0 33 6 36 14 5 13 -192 734 -205
748 -3 4 -17 2 -31 -5z"/>
<path d="M2661 8697 c-50 -163 -201 -719 -196 -727 3 -6 20 -10 37 -10 42 0
142 102 190 195 60 115 83 211 82 345 0 120 -12 168 -51 201 -36 31 -51 30
-62 -4z"/>
<path d="M5826 7934 c-13 -13 -16 -41 -16 -155 0 -78 5 -149 10 -160 9 -17 22
-19 98 -19 55 0 92 4 100 12 8 8 12 59 12 163 0 104 -4 155 -12 163 -19 19
-173 16 -192 -4z m164 -159 l0 -136 -67 3 -68 3 -3 119 c-1 66 0 126 2 133 4
9 26 13 71 13 l65 0 0 -135z"/>
<path d="M6152 7938 c-8 -8 -12 -59 -12 -163 0 -104 4 -155 12 -163 19 -19
173 -16 192 4 23 23 23 295 0 318 -19 20 -173 23 -192 4z m163 -163 l0 -130
-67 -3 -68 -3 0 136 0 136 68 -3 67 -3 0 -130z"/>
<path d="M6476 7934 c-23 -23 -23 -295 0 -318 19 -20 173 -23 192 -4 8 8 12
59 12 163 0 104 -4 155 -12 163 -19 19 -173 16 -192 -4z m164 -159 l0 -136
-67 3 -68 3 -3 119 c-1 66 0 126 2 133 4 9 26 13 71 13 l65 0 0 -135z"/>
<path d="M7126 7934 c-23 -23 -23 -295 0 -318 19 -20 173 -23 192 -4 8 8 12
59 12 163 0 104 -4 155 -12 163 -19 19 -173 16 -192 -4z m164 -159 l0 -136
-67 3 -68 3 -3 119 c-1 66 0 126 2 133 4 9 26 13 71 13 l65 0 0 -135z"/>
<path d="M5021 7931 c-10 -7 -13 -41 -12 -150 l2 -141 -66 0 -65 0 0 92 c0 90
0 91 -20 73 -17 -15 -20 -31 -20 -100 0 -50 5 -86 12 -93 14 -14 166 -16 188
-2 21 13 28 286 8 312 -8 12 -18 15 -27 9z"/>
<path d="M6160 7471 c-5 -11 -10 -82 -10 -160 0 -173 -1 -171 114 -171 50 0
87 5 94 12 8 8 12 59 12 163 0 104 -4 155 -12 163 -8 8 -45 12 -100 12 -76 0
-89 -2 -98 -19z m170 -156 l0 -136 -67 3 -68 3 -3 119 c-1 66 0 126 2 133 4 9
26 13 71 13 l65 0 0 -135z"/>
<path d="M6487 7483 c-18 -18 -4 -32 36 -35 l42 -3 0 -130 0 -130 -43 -3 c-34
-3 -43 -7 -40 -20 3 -14 19 -17 102 -20 114 -3 116 -2 116 75 0 60 -7 83 -25
83 -17 0 -25 -23 -25 -76 0 -37 -3 -44 -20 -44 -19 0 -20 7 -20 155 l0 155
-58 0 c-32 0 -62 -3 -65 -7z"/>
<path d="M6805 7480 c-11 -19 6 -30 46 -30 l39 0 0 -134 0 -135 -42 -3 c-30
-2 -43 -8 -43 -18 0 -12 18 -15 105 -15 l105 0 0 75 c0 60 -3 75 -15 75 -11 0
-16 -15 -20 -55 -4 -47 -8 -55 -25 -55 -19 0 -20 8 -23 153 l-3 152 -59 0
c-32 0 -62 -4 -65 -10z"/>
<path d="M7142 7478 c-8 -8 -12 -59 -12 -163 0 -104 4 -155 12 -163 19 -19
173 -16 192 4 23 23 23 295 0 318 -19 20 -173 23 -192 4z m163 -163 l0 -130
-67 -3 -68 -3 0 136 0 136 68 -3 67 -3 0 -130z"/>
<path d="M7455 7480 c-11 -19 6 -30 46 -30 l39 0 0 -134 0 -135 -42 -3 c-30
-2 -43 -8 -43 -18 0 -12 18 -15 105 -15 l105 0 0 75 c0 60 -3 75 -15 75 -11 0
-16 -14 -18 -58 -3 -54 -5 -58 -25 -55 -21 3 -22 7 -25 156 l-3 152 -59 0
c-32 0 -62 -4 -65 -10z"/>
<path d="M7792 7478 c-8 -8 -12 -59 -12 -163 0 -104 4 -155 12 -163 19 -19
173 -16 192 4 23 23 23 295 0 318 -19 20 -173 23 -192 4z m163 -163 l0 -130
-67 -3 -68 -3 0 136 0 136 68 -3 67 -3 0 -130z"/>
<path d="M8105 7480 c-11 -19 6 -30 46 -30 l39 0 0 -134 0 -135 -42 -3 c-30
-2 -43 -8 -43 -18 0 -12 18 -15 105 -15 l105 0 0 75 c0 60 -3 75 -15 75 -11 0
-16 -14 -18 -58 -3 -54 -5 -58 -25 -55 -21 3 -22 7 -25 156 l-3 152 -59 0
c-32 0 -62 -4 -65 -10z"/>
<path d="M8442 7478 c-8 -8 -12 -59 -12 -163 0 -104 4 -155 12 -163 7 -7 44
-12 94 -12 115 0 114 -2 114 171 0 78 -5 149 -10 160 -9 17 -22 19 -98 19 -55
0 -92 -4 -100 -12z m163 -163 l0 -130 -65 0 -65 0 -3 119 c-1 66 0 126 3 133
3 10 22 13 67 11 l63 -3 0 -130z"/>
<path d="M4966 7199 c-47 -11 -125 -50 -171 -85 -46 -35 -120 -146 -145 -217
-41 -116 -34 -282 17 -452 18 -58 18 -61 0 -95 -22 -42 -17 -99 13 -168 23
-51 76 -112 97 -112 7 0 13 -1 14 -2 0 -2 4 -71 9 -154 8 -157 20 -204 70
-274 l21 -29 -22 -43 c-12 -24 -39 -83 -60 -132 l-37 -90 -412 -157 c-226 -86
-414 -160 -418 -163 -4 -4 -209 -273 -457 -599 -446 -585 -450 -591 -494 -602
-70 -17 -85 -45 -76 -144 7 -77 9 -82 36 -97 l30 -15 -64 -92 c-232 -333 -318
-464 -328 -501 -28 -98 30 -274 119 -362 68 -68 87 -75 246 -83 105 -6 23 -8
-326 -10 -258 0 -468 1 -468 4 0 22 27 55 45 55 25 0 21 -27 55 359 l19 224
36 37 c33 34 36 41 33 86 l-3 49 -132 3 -133 3 0 244 0 245 68 0 c120 0 180
28 223 103 23 40 24 49 24 245 l0 204 -33 29 c-36 32 -69 36 -111 15 -45 -24
-51 -52 -51 -236 l0 -170 -60 0 -60 0 0 268 c0 300 -4 318 -71 354 -50 27
-211 26 -257 -2 -60 -37 -62 -50 -62 -455 l0 -365 -49 0 -50 0 -3 181 -3 181
-28 24 c-40 34 -90 32 -128 -5 l-29 -29 0 -202 c0 -224 5 -246 63 -297 38 -33
106 -53 182 -53 l45 0 0 -140 0 -139 -142 -3 -143 -3 -3 -49 c-3 -45 0 -52 33
-86 l36 -37 26 -291 c18 -198 30 -292 38 -292 10 0 35 -40 35 -55 0 -3 -135
-5 -301 -5 l-301 0 -34 -34 -34 -34 0 -111 c0 -82 4 -120 16 -142 28 -56 51
-59 404 -59 l320 0 0 -265 0 -265 3745 0 3745 0 0 265 0 265 335 0 c370 0 390
3 419 59 12 22 16 60 16 142 l0 111 -34 34 -34 34 -628 0 c-622 0 -629 1 -604
20 24 18 25 24 28 139 l4 121 39 0 c85 0 110 29 169 200 28 80 34 109 34 185
0 99 -13 137 -60 174 -22 17 -41 21 -105 21 -78 0 -79 0 -79 25 l0 25 -350 0
-350 0 0 -432 c0 -429 0 -432 22 -455 l21 -23 -331 0 c-183 0 -332 2 -332 5 0
2 17 12 38 22 59 27 136 114 178 199 32 64 38 86 38 142 0 65 -4 76 -122 331
-67 146 -122 270 -122 276 0 6 20 16 44 22 l43 12 6 60 c4 37 2 70 -5 85 -10
24 -62 56 -90 56 -21 0 -237 451 -227 476 11 28 11 258 -1 288 -9 25 -13 26
-88 26 l-79 0 -141 292 -141 292 -447 151 -448 150 -17 50 c-9 28 -30 80 -47
117 -27 60 -29 68 -16 87 30 42 46 110 54 224 6 85 13 123 24 136 9 10 16 23
16 29 0 7 18 30 40 53 68 70 102 204 65 256 -14 20 -14 33 4 130 11 59 22 119
24 133 2 14 5 2 6 -26 0 -27 6 -55 13 -62 7 -7 44 -12 95 -12 114 0 116 3 111
190 -2 112 -6 143 -18 150 -8 5 -52 10 -96 10 -86 0 -99 -6 -107 -50 l-4 -25
-2 26 c-2 50 -41 156 -72 198 -20 29 -48 51 -85 68 -47 21 -66 24 -147 22 -86
-2 -97 0 -177 34 -47 19 -120 43 -162 51 -83 17 -220 19 -282 5z m1104 -504
l0 -135 -65 0 -65 0 0 135 0 135 65 0 65 0 0 -135z m980 -2322 c0 -58 -2 -104
-4 -102 -2 2 -27 50 -55 107 l-51 102 55 0 55 0 0 -107z m-1694 -634 c29 -15
61 -42 79 -68 26 -36 30 -52 30 -105 0 -52 -5 -69 -28 -103 -98 -141 -352
-130 -428 19 -42 82 -12 193 67 244 77 51 195 57 280 13z m-1477 -533 l1 -139
-72 7 c-207 19 -298 30 -298 36 0 3 17 29 38 57 37 49 38 50 64 37 27 -14 28
-13 140 112 l113 126 7 -49 c3 -26 7 -111 7 -187z m2666 45 c2 -2 18 1 35 7
29 11 31 9 51 -29 11 -23 18 -43 15 -46 -2 -3 -34 -2 -70 2 l-66 7 1 67 1 66
15 -35 c8 -19 17 -37 18 -39z m2223 12 c19 -47 7 -148 -32 -255 l-38 -108 -34
0 -34 0 0 190 0 190 65 0 c53 0 67 -3 73 -17z m-2443 -573 c-4 -7 -407 -10
-1176 -10 -773 0 -1169 3 -1169 10 0 7 399 10 1176 10 781 0 1173 -3 1169 -10z
m559 -126 c160 -19 292 -37 295 -39 2 -3 -149 -5 -337 -5 l-342 0 0 29 c0 54
8 62 54 56 22 -3 171 -21 330 -41z"/>
<path d="M1522 7120 l-22 -21 0 -639 c0 -627 0 -640 20 -660 19 -19 33 -20
385 -20 l365 0 0 -151 c0 -91 -4 -159 -11 -172 -20 -39 -72 -86 -107 -98 -54
-18 -754 -2 -802 18 -46 19 -87 59 -99 97 -5 17 -13 228 -16 469 l-7 437 33 0
c59 0 60 4 57 146 l-3 129 -47 3 -48 3 0 45 c0 24 -4 44 -10 44 -5 0 -10 -20
-10 -44 l0 -45 -47 -3 -48 -3 -3 -129 c-3 -141 -1 -146 54 -146 l31 0 7 -447
c6 -426 8 -450 28 -491 23 -49 83 -98 137 -111 20 -5 201 -12 403 -16 359 -6
368 -6 415 15 26 11 58 31 71 43 50 46 57 72 62 242 l5 160 93 5 c78 4 96 8
108 24 12 17 14 123 14 658 0 625 0 638 -20 658 -19 19 -33 20 -493 20 -462 0
-474 0 -495 -20z"/>
<path d="M6225 6860 c-11 -19 6 -30 46 -30 l39 0 0 -135 0 -135 -46 0 c-38 0
-45 -3 -42 -17 3 -16 16 -18 108 -18 l105 0 0 75 c0 60 -3 75 -15 75 -11 0
-16 -15 -20 -55 -4 -47 -8 -55 -25 -55 -19 0 -20 8 -23 153 l-3 152 -59 0
c-32 0 -62 -4 -65 -10z"/>
<path d="M6562 6858 c-8 -8 -12 -59 -12 -163 0 -104 4 -155 12 -163 19 -19
173 -16 192 4 23 23 23 295 0 318 -19 20 -173 23 -192 4z m163 -163 l0 -130
-67 -3 -68 -3 0 136 0 136 68 -3 67 -3 0 -130z"/>
<path d="M6875 6860 c-11 -19 6 -30 46 -30 l39 0 0 -134 0 -135 -42 -3 c-30
-2 -43 -8 -43 -18 0 -12 18 -15 105 -15 l105 0 0 75 c0 60 -3 75 -15 75 -11 0
-16 -15 -20 -55 -4 -47 -8 -55 -25 -55 -19 0 -20 8 -23 153 l-3 152 -59 0
c-32 0 -62 -4 -65 -10z"/>
<path d="M7212 6858 c-8 -8 -12 -59 -12 -163 0 -104 4 -155 12 -163 19 -19
173 -16 192 4 23 23 23 295 0 318 -19 20 -173 23 -192 4z m163 -163 l0 -130
-67 -3 -68 -3 0 136 0 136 68 -3 67 -3 0 -130z"/>
<path d="M1140 6735 c0 -8 9 -15 20 -15 11 0 20 7 20 15 0 8 -9 15 -20 15 -11
0 -20 -7 -20 -15z"/>
<path d="M1240 6735 c0 -8 7 -15 15 -15 8 0 15 7 15 15 0 8 -7 15 -15 15 -8 0
-15 -7 -15 -15z"/>
<path d="M7602 5588 c-8 -8 -12 -59 -12 -163 0 -104 4 -155 12 -163 19 -19
173 -16 192 4 23 23 23 295 0 318 -19 20 -173 23 -192 4z m163 -163 l0 -130
-67 -3 -68 -3 0 136 0 136 68 -3 67 -3 0 -130z"/>
<path d="M7915 5590 c-11 -19 6 -30 46 -30 l39 0 0 -134 0 -135 -42 -3 c-30
-2 -43 -8 -43 -18 0 -12 18 -15 105 -15 l105 0 0 75 c0 60 -3 75 -15 75 -11 0
-16 -15 -20 -55 -4 -47 -8 -55 -25 -55 -19 0 -20 8 -23 153 l-3 152 -59 0
c-32 0 -62 -4 -65 -10z"/>
<path d="M8252 5588 c-8 -8 -12 -59 -12 -163 0 -104 4 -155 12 -163 19 -19
173 -16 192 4 23 23 23 295 0 318 -19 20 -173 23 -192 4z m163 -163 l0 -130
-67 -3 -68 -3 0 136 0 136 68 -3 67 -3 0 -130z"/>
<path d="M8577 5585 c-24 -24 -25 -295 -1 -319 19 -20 173 -23 192 -4 8 8 12
58 12 160 l0 148 -27 12 c-16 6 -58 13 -94 16 -52 3 -69 1 -82 -13z m163 -160
l0 -136 -67 3 -68 3 -3 119 c-1 66 0 126 2 133 4 9 26 13 71 13 l65 0 0 -135z"/>
<path d="M8978 5374 l-3 -79 -43 -3 c-34 -3 -43 -7 -40 -20 3 -15 18 -17 108
-17 l105 0 3 33 c2 22 -3 41 -15 54 -18 20 -18 20 -23 -13 -4 -26 -11 -35 -27
-37 -22 -3 -23 0 -23 61 0 51 -4 68 -20 82 -19 17 -19 16 -22 -61z"/>
<path d="M7212 4508 c-8 -8 -12 -58 -12 -158 0 -100 4 -150 12 -158 7 -7 44
-12 98 -12 54 0 91 5 98 12 8 8 12 58 12 158 0 100 -4 150 -12 158 -16 16
-180 16 -196 0z m168 -158 l0 -130 -70 0 -70 0 0 130 0 130 70 0 70 0 0 -130z"/>
<path d="M7532 4503 c2 -13 15 -19 46 -21 l42 -3 0 -129 0 -129 -42 -3 c-32
-2 -44 -8 -46 -21 -3 -16 5 -17 105 -15 l108 3 3 60 c2 66 -7 91 -32 82 -12
-5 -16 -20 -16 -57 0 -43 -3 -50 -20 -50 -19 0 -20 7 -20 150 l0 150 -66 0
c-57 0 -65 -2 -62 -17z"/>
</g>
</svg>
